<svg xmlns="http://www.w3.org/2000/svg" width="1200" height="600" viewBox="0 0 1200 600" fill="none">
  <defs>
    <linearGradient id="railOuter" x1="600" y1="30" x2="600" y2="570" gradientUnits="userSpaceOnUse">
      <stop offset="0" stop-color="#5f1208"/>
      <stop offset="0.12" stop-color="#bf4221"/>
      <stop offset="0.28" stop-color="#95210f"/>
      <stop offset="0.52" stop-color="#671006"/>
      <stop offset="0.76" stop-color="#ab2f17"/>
      <stop offset="1" stop-color="#e19a7c"/>
    </linearGradient>
    <linearGradient id="railGloss" x1="600" y1="34" x2="600" y2="566" gradientUnits="userSpaceOnUse">
      <stop offset="0" stop-color="#ffd9ca" stop-opacity="0.78"/>
      <stop offset="0.08" stop-color="#fff1ea" stop-opacity="0.36"/>
      <stop offset="0.22" stop-color="#ffffff" stop-opacity="0"/>
      <stop offset="0.76" stop-color="#000000" stop-opacity="0"/>
      <stop offset="1" stop-color="#0e0100" stop-opacity="0.42"/>
    </linearGradient>
    <radialGradient id="feltFill" cx="50%" cy="48%" r="82%">
      <stop offset="0" stop-color="#66cfff"/>
      <stop offset="0.34" stop-color="#40aae2"/>
      <stop offset="0.7" stop-color="#1872a9"/>
      <stop offset="1" stop-color="#083f67"/>
    </radialGradient>
    <radialGradient id="feltDepth" cx="50%" cy="52%" r="88%">
      <stop offset="0.56" stop-color="#ffffff" stop-opacity="0"/>
      <stop offset="0.78" stop-color="#002743" stop-opacity="0.18"/>
      <stop offset="0.9" stop-color="#00162a" stop-opacity="0.48"/>
      <stop offset="1" stop-color="#00060f" stop-opacity="0.72"/>
    </radialGradient>
    <linearGradient id="cushionTop" x1="0" y1="0" x2="0" y2="1">
      <stop offset="0" stop-color="#eefcff"/>
      <stop offset="0.18" stop-color="#d9eef7"/>
      <stop offset="0.62" stop-color="#87adbf"/>
      <stop offset="1" stop-color="#5d7f97"/>
    </linearGradient>
    <linearGradient id="cushionSide" x1="0" y1="0" x2="1" y2="0">
      <stop offset="0" stop-color="#6e95ac"/>
      <stop offset="1" stop-color="#effdff"/>
    </linearGradient>
    <radialGradient id="pocketCore" cx="50%" cy="45%" r="72%">
      <stop offset="0" stop-color="#161f2c"/>
      <stop offset="0.4" stop-color="#05070a"/>
      <stop offset="1" stop-color="#000000"/>
    </radialGradient>
    <filter id="tableShadow" x="-10%" y="-14%" width="120%" height="144%">
      <feDropShadow dx="0" dy="34" stdDeviation="30" flood-color="#000000" flood-opacity="0.48"/>
      <feDropShadow dx="0" dy="14" stdDeviation="12" flood-color="#000000" flood-opacity="0.24"/>
    </filter>
  </defs>

  <g filter="url(#tableShadow)">
    <rect x="18" y="24" width="1164" height="552" rx="38" fill="#150503"/>
    <rect x="28" y="34" width="1144" height="532" rx="31" fill="url(#railOuter)"/>
    <rect x="28" y="34" width="1144" height="532" rx="31" fill="url(#railGloss)"/>

    <path d="M102 78H1098" stroke="#3a0c08" stroke-width="16" stroke-linecap="round"/>
    <path d="M102 522H1098" stroke="#3a0c08" stroke-width="16" stroke-linecap="round"/>
    <path d="M112 58H1088" stroke="#ffe7da" stroke-opacity="0.28" stroke-width="3.2" stroke-linecap="round"/>
    <path d="M110 542H1090" stroke="#1a0604" stroke-opacity="0.58" stroke-width="4" stroke-linecap="round"/>

    <rect x="78" y="58" width="1044" height="484" rx="18" fill="url(#feltFill)"/>
    <rect x="78" y="58" width="1044" height="484" rx="18" fill="url(#feltDepth)"/>
    <rect x="94" y="74" width="1012" height="452" rx="13" stroke="#effcff" stroke-opacity="0.11" stroke-width="1.7"/>

    <path d="M116 74H530L496 98H150Z" fill="url(#cushionTop)"/>
    <path d="M670 74H1084L1050 98H704Z" fill="url(#cushionTop)"/>
    <path d="M150 502H496L530 526H116Z" fill="url(#cushionTop)"/>
    <path d="M704 502H1050L1084 526H670Z" fill="url(#cushionTop)"/>
    <path d="M98 148V452L118 430V170Z" fill="url(#cushionSide)"/>
    <path d="M1102 148V452L1082 430V170Z" fill="url(#cushionSide)"/>

    <path d="M112 105H1088" stroke="#ffffff" stroke-opacity="0.05" stroke-width="1.35"/>
    <path d="M112 495H1088" stroke="#021220" stroke-opacity="0.3" stroke-width="1.5"/>
    <path d="M330 88V512" stroke="#ebfcff" stroke-opacity="0.17" stroke-width="1.7"/>
    <circle cx="330" cy="300" r="29" stroke="#ebfcff" stroke-opacity="0.14" stroke-width="1.7"/>

    <g fill="#f4fbff" opacity="0.7">
      <circle cx="208" cy="72" r="2.5"/><circle cx="336" cy="72" r="2.5"/><circle cx="464" cy="72" r="2.5"/>
      <circle cx="736" cy="72" r="2.5"/><circle cx="864" cy="72" r="2.5"/><circle cx="992" cy="72" r="2.5"/>
      <circle cx="208" cy="528" r="2.5"/><circle cx="336" cy="528" r="2.5"/><circle cx="464" cy="528" r="2.5"/>
      <circle cx="736" cy="528" r="2.5"/><circle cx="864" cy="528" r="2.5"/><circle cx="992" cy="528" r="2.5"/>
    </g>

    <g>
      <circle cx="54" cy="42" r="34" fill="#2c0906"/>
      <circle cx="54" cy="42" r="26.4" fill="url(#pocketCore)"/>
      <ellipse cx="54" cy="35" rx="14" ry="8" fill="#9aa7b6" opacity="0.12"/>

      <circle cx="600" cy="28" r="31" fill="#2c0906"/>
      <circle cx="600" cy="28" r="24.4" fill="url(#pocketCore)"/>
      <ellipse cx="600" cy="22" rx="14" ry="8" fill="#9aa7b6" opacity="0.11"/>

      <circle cx="1146" cy="42" r="34" fill="#2c0906"/>
      <circle cx="1146" cy="42" r="26.4" fill="url(#pocketCore)"/>
      <ellipse cx="1146" cy="35" rx="14" ry="8" fill="#9aa7b6" opacity="0.12"/>

      <circle cx="54" cy="558" r="34" fill="#2c0906"/>
      <circle cx="54" cy="558" r="26.4" fill="url(#pocketCore)"/>
      <ellipse cx="54" cy="551" rx="14" ry="8" fill="#9aa7b6" opacity="0.12"/>

      <circle cx="600" cy="572" r="31" fill="#2c0906"/>
      <circle cx="600" cy="572" r="24.4" fill="url(#pocketCore)"/>
      <ellipse cx="600" cy="566" rx="14" ry="8" fill="#9aa7b6" opacity="0.11"/>

      <circle cx="1146" cy="558" r="34" fill="#2c0906"/>
      <circle cx="1146" cy="558" r="26.4" fill="url(#pocketCore)"/>
      <ellipse cx="1146" cy="551" rx="14" ry="8" fill="#9aa7b6" opacity="0.12"/>
    </g>
  </g>
</svg>
