<svg xmlns="http://www.w3.org/2000/svg" width="1200" height="600" viewBox="0 0 1200 600" fill="none">
  <defs>
    <linearGradient id="woodOuter" x1="0" y1="24" x2="0" y2="576" gradientUnits="userSpaceOnUse">
      <stop offset="0" stop-color="#a33f2c"/>
      <stop offset="0.16" stop-color="#7e2314"/>
      <stop offset="0.48" stop-color="#5e150b"/>
      <stop offset="0.78" stop-color="#852717"/>
      <stop offset="1" stop-color="#c76c4f"/>
    </linearGradient>
    <linearGradient id="woodInner" x1="0" y1="42" x2="0" y2="558" gradientUnits="userSpaceOnUse">
      <stop offset="0" stop-color="#f7b693" stop-opacity="0.58"/>
      <stop offset="0.15" stop-color="#ffffff" stop-opacity="0.09"/>
      <stop offset="0.45" stop-color="#ffffff" stop-opacity="0"/>
      <stop offset="0.78" stop-color="#080201" stop-opacity="0.14"/>
      <stop offset="1" stop-color="#000000" stop-opacity="0.34"/>
    </linearGradient>
    <radialGradient id="feltFill" cx="50%" cy="47%" r="78%">
      <stop offset="0" stop-color="#76d9ff"/>
      <stop offset="0.38" stop-color="#3bb0e6"/>
      <stop offset="0.76" stop-color="#1576ad"/>
      <stop offset="1" stop-color="#063056"/>
    </radialGradient>
    <radialGradient id="feltShade" cx="50%" cy="50%" r="82%">
      <stop offset="0.48" stop-color="#ffffff" stop-opacity="0"/>
      <stop offset="0.72" stop-color="#001420" stop-opacity="0.15"/>
      <stop offset="0.9" stop-color="#000f19" stop-opacity="0.42"/>
      <stop offset="1" stop-color="#000912" stop-opacity="0.66"/>
    </radialGradient>
    <linearGradient id="railTop" x1="0" y1="0" x2="0" y2="1">
      <stop offset="0" stop-color="#e8fbff" stop-opacity="0.96"/>
      <stop offset="0.28" stop-color="#adcfe3" stop-opacity="0.96"/>
      <stop offset="1" stop-color="#597d95" stop-opacity="0.98"/>
    </linearGradient>
    <linearGradient id="railSide" x1="0" y1="0" x2="1" y2="0">
      <stop offset="0" stop-color="#7aa3bc"/>
      <stop offset="1" stop-color="#e0f7ff"/>
    </linearGradient>
    <radialGradient id="pocketCore" cx="50%" cy="42%" r="72%">
      <stop offset="0" stop-color="#343944"/>
      <stop offset="0.28" stop-color="#111620"/>
      <stop offset="1" stop-color="#000000"/>
    </radialGradient>
    <filter id="tableShadow" x="-10%" y="-14%" width="120%" height="140%">
      <feDropShadow dx="0" dy="26" stdDeviation="24" flood-color="#000000" flood-opacity="0.4"/>
      <feDropShadow dx="0" dy="10" stdDeviation="10" flood-color="#000000" flood-opacity="0.18"/>
    </filter>
  </defs>

  <g filter="url(#tableShadow)">
    <rect x="16" y="20" width="1168" height="560" rx="58" fill="#180504"/>
    <rect x="26" y="28" width="1148" height="544" rx="50" fill="url(#woodOuter)"/>
    <rect x="26" y="28" width="1148" height="544" rx="50" fill="url(#woodInner)"/>
    <rect x="42" y="44" width="1116" height="512" rx="40" stroke="#f2d0bd" stroke-opacity="0.12" stroke-width="3"/>

    <path d="M92 80H1108" stroke="#2b0d08" stroke-opacity="0.95" stroke-width="11" stroke-linecap="round"/>
    <path d="M92 520H1108" stroke="#2b0d08" stroke-opacity="0.95" stroke-width="11" stroke-linecap="round"/>
    <path d="M104 62H1096" stroke="#ffd4c0" stroke-opacity="0.24" stroke-width="3" stroke-linecap="round"/>
    <path d="M104 538H1096" stroke="#180605" stroke-opacity="0.48" stroke-width="4" stroke-linecap="round"/>

    <rect x="69" y="50" width="1062" height="500" rx="28" fill="url(#feltFill)"/>
    <rect x="69" y="50" width="1062" height="500" rx="28" fill="url(#feltShade)"/>
    <rect x="76" y="57" width="1048" height="486" rx="24" stroke="#dff6ff" stroke-opacity="0.08" stroke-width="2"/>

    <path d="M104 62H536L502 92H138Z" fill="url(#railTop)"/>
    <path d="M664 62H1096L1062 92H698Z" fill="url(#railTop)"/>
    <path d="M138 508H502L536 538H104Z" fill="url(#railTop)" opacity="0.9"/>
    <path d="M698 508H1062L1096 538H664Z" fill="url(#railTop)" opacity="0.9"/>
    <path d="M80 116V484L102 456V144Z" fill="url(#railSide)" opacity="0.9"/>
    <path d="M1120 116V484L1098 456V144Z" fill="url(#railSide)" opacity="0.9"/>
    <path d="M96 102H1104" stroke="#ffffff" stroke-opacity="0.05" stroke-width="1.5"/>

    <path d="M328 84V516" stroke="#dcf8ff" stroke-opacity="0.15" stroke-width="2"/>
    <circle cx="328" cy="300" r="31" stroke="#effbff" stroke-opacity="0.12" stroke-width="2"/>

    <g fill="#f5fbff" opacity="0.8">
      <circle cx="212" cy="64" r="2.8"/><circle cx="342" cy="64" r="2.8"/><circle cx="472" cy="64" r="2.8"/>
      <circle cx="728" cy="64" r="2.8"/><circle cx="858" cy="64" r="2.8"/><circle cx="988" cy="64" r="2.8"/>
      <circle cx="212" cy="536" r="2.8"/><circle cx="342" cy="536" r="2.8"/><circle cx="472" cy="536" r="2.8"/>
      <circle cx="728" cy="536" r="2.8"/><circle cx="858" cy="536" r="2.8"/><circle cx="988" cy="536" r="2.8"/>
    </g>

    <g>
      <circle cx="54" cy="42" r="34" fill="#2b0f0b"/>
      <circle cx="54" cy="42" r="30" fill="#3a1610" opacity="0.72"/>
      <circle cx="54" cy="42" r="26.8" fill="url(#pocketCore)"/>
      <ellipse cx="54" cy="38" rx="19" ry="12" fill="#5a616f" opacity="0.16"/>

      <circle cx="600" cy="28" r="32" fill="#2b0f0b"/>
      <circle cx="600" cy="28" r="28.5" fill="#3a1610" opacity="0.72"/>
      <circle cx="600" cy="28" r="25.5" fill="url(#pocketCore)"/>
      <ellipse cx="600" cy="24" rx="18" ry="11.5" fill="#5a616f" opacity="0.16"/>

      <circle cx="1146" cy="42" r="34" fill="#2b0f0b"/>
      <circle cx="1146" cy="42" r="30" fill="#3a1610" opacity="0.72"/>
      <circle cx="1146" cy="42" r="26.8" fill="url(#pocketCore)"/>
      <ellipse cx="1146" cy="38" rx="19" ry="12" fill="#5a616f" opacity="0.16"/>

      <circle cx="54" cy="558" r="34" fill="#2b0f0b"/>
      <circle cx="54" cy="558" r="30" fill="#3a1610" opacity="0.72"/>
      <circle cx="54" cy="558" r="26.8" fill="url(#pocketCore)"/>
      <ellipse cx="54" cy="554" rx="19" ry="12" fill="#5a616f" opacity="0.16"/>

      <circle cx="600" cy="572" r="32" fill="#2b0f0b"/>
      <circle cx="600" cy="572" r="28.5" fill="#3a1610" opacity="0.72"/>
      <circle cx="600" cy="572" r="25.5" fill="url(#pocketCore)"/>
      <ellipse cx="600" cy="568" rx="18" ry="11.5" fill="#5a616f" opacity="0.16"/>

      <circle cx="1146" cy="558" r="34" fill="#2b0f0b"/>
      <circle cx="1146" cy="558" r="30" fill="#3a1610" opacity="0.72"/>
      <circle cx="1146" cy="558" r="26.8" fill="url(#pocketCore)"/>
      <ellipse cx="1146" cy="554" rx="19" ry="12" fill="#5a616f" opacity="0.16"/>
    </g>
  </g>
</svg>
