<svg xmlns="http://www.w3.org/2000/svg" width="1200" height="600" viewBox="0 0 1200 600">
  <defs>
    <linearGradient id="bg" x1="0" y1="0" x2="0" y2="1">
      <stop offset="0" stop-color="#a43b20"/>
      <stop offset="0.55" stop-color="#893019"/>
      <stop offset="1" stop-color="#b24727"/>
    </linearGradient>
    <linearGradient id="felt" x1="0" y1="0" x2="1" y2="1">
      <stop offset="0" stop-color="#88ddff"/>
      <stop offset="0.52" stop-color="#5dc5ea"/>
      <stop offset="1" stop-color="#47aeda"/>
    </linearGradient>
    <radialGradient id="feltGlow" cx="50%" cy="45%" r="55%">
      <stop offset="0" stop-color="#ffffff" stop-opacity="0.24"/>
      <stop offset="1" stop-color="#ffffff" stop-opacity="0"/>
    </radialGradient>
    <radialGradient id="pocket" cx="40%" cy="36%" r="70%">
      <stop offset="0" stop-color="#415765"/>
      <stop offset="1" stop-color="#05070b"/>
    </radialGradient>
    <linearGradient id="metal" x1="0" y1="0" x2="0" y2="1">
      <stop offset="0" stop-color="#dbf0ff" stop-opacity="0.9"/>
      <stop offset="1" stop-color="#6f9ab1" stop-opacity="0.82"/>
    </linearGradient>
    <filter id="shadow" x="-20%" y="-20%" width="140%" height="140%">
      <feDropShadow dx="0" dy="12" stdDeviation="14" flood-color="#000000" flood-opacity="0.35"/>
    </filter>
  </defs>
  <g filter="url(#shadow)">
    <rect x="18" y="18" width="1164" height="564" rx="46" fill="url(#bg)"/>
    <rect x="30" y="30" width="1140" height="540" rx="40" fill="#b95b3a" fill-opacity="0.12"/>
    <rect x="69" y="50" width="1062" height="500" rx="28" fill="url(#felt)"/>
    <rect x="69" y="50" width="1062" height="500" rx="28" fill="url(#feltGlow)"/>
    <path d="M106 58 H531 L510 78 H127 Z" fill="url(#metal)" opacity="0.6"/>
    <path d="M669 58 H1094 L1073 78 H690 Z" fill="url(#metal)" opacity="0.6"/>
    <path d="M127 522 H510 L531 542 H106 Z" fill="url(#metal)" opacity="0.6"/>
    <path d="M690 522 H1073 L1094 542 H669 Z" fill="url(#metal)" opacity="0.6"/>
    <path d="M77 113 V487 L97 465 V135 Z" fill="url(#metal)" opacity="0.55"/>
    <path d="M1123 113 V487 L1103 465 V135 Z" fill="url(#metal)" opacity="0.55"/>
    <g fill="#edf2f5" opacity="0.88">
      <circle cx="208" cy="63" r="3.3"/><circle cx="336" cy="63" r="3.3"/><circle cx="464" cy="63" r="3.3"/>
      <circle cx="736" cy="63" r="3.3"/><circle cx="864" cy="63" r="3.3"/><circle cx="992" cy="63" r="3.3"/>
      <circle cx="208" cy="537" r="3.3"/><circle cx="336" cy="537" r="3.3"/><circle cx="464" cy="537" r="3.3"/>
      <circle cx="736" cy="537" r="3.3"/><circle cx="864" cy="537" r="3.3"/><circle cx="992" cy="537" r="3.3"/>
    </g>
    <path d="M328 72 V528" stroke="#ffffff" stroke-opacity="0.14" stroke-width="2"/>
    <circle cx="328" cy="300" r="31" fill="none" stroke="#ffffff" stroke-opacity="0.13" stroke-width="2"/>
    <g>
      <circle cx="54" cy="42" r="29" fill="url(#pocket)"/>
      <circle cx="600" cy="28" r="26" fill="url(#pocket)"/>
      <circle cx="1146" cy="42" r="29" fill="url(#pocket)"/>
      <circle cx="54" cy="558" r="29" fill="url(#pocket)"/>
      <circle cx="600" cy="572" r="26" fill="url(#pocket)"/>
      <circle cx="1146" cy="558" r="29" fill="url(#pocket)"/>
    </g>
  </g>
</svg>