<svg xmlns="http://www.w3.org/2000/svg" width="1200" height="600" viewBox="0 0 1200 600" fill="none">
  <defs>
    <linearGradient id="woodOuter" x1="0" y1="18" x2="0" y2="582" gradientUnits="userSpaceOnUse">
      <stop offset="0" stop-color="#ec9a76"/>
      <stop offset="0.12" stop-color="#cb5d36"/>
      <stop offset="0.48" stop-color="#8e2b17"/>
      <stop offset="0.82" stop-color="#a83b20"/>
      <stop offset="1" stop-color="#d97757"/>
    </linearGradient>
    <linearGradient id="woodInner" x1="0" y1="40" x2="0" y2="560" gradientUnits="userSpaceOnUse">
      <stop offset="0" stop-color="#ffbf9f" stop-opacity="0.52"/>
      <stop offset="0.18" stop-color="#ffffff" stop-opacity="0.1"/>
      <stop offset="0.72" stop-color="#000000" stop-opacity="0.1"/>
      <stop offset="1" stop-color="#000000" stop-opacity="0.32"/>
    </linearGradient>
    <radialGradient id="feltMain" cx="50%" cy="46%" r="72%">
      <stop offset="0" stop-color="#89dffd"/>
      <stop offset="0.48" stop-color="#61c4eb"/>
      <stop offset="0.82" stop-color="#3b9ecf"/>
      <stop offset="1" stop-color="#246e9c"/>
    </radialGradient>
    <radialGradient id="feltEdge" cx="50%" cy="50%" r="80%">
      <stop offset="0.62" stop-color="#ffffff" stop-opacity="0"/>
      <stop offset="0.84" stop-color="#09537a" stop-opacity="0.18"/>
      <stop offset="1" stop-color="#031c2c" stop-opacity="0.45"/>
    </radialGradient>
    <linearGradient id="cushion" x1="0" y1="0" x2="0" y2="1">
      <stop offset="0" stop-color="#d7f3ff" stop-opacity="0.95"/>
      <stop offset="0.3" stop-color="#b0d8e7" stop-opacity="0.82"/>
      <stop offset="1" stop-color="#658b9d" stop-opacity="0.96"/>
    </linearGradient>
    <radialGradient id="pocketFill" cx="50%" cy="42%" r="62%">
      <stop offset="0" stop-color="#363943"/>
      <stop offset="0.4" stop-color="#090d13"/>
      <stop offset="1" stop-color="#000000"/>
    </radialGradient>
    <radialGradient id="pocketRim" cx="42%" cy="32%" r="72%">
      <stop offset="0" stop-color="#7b8d9f" stop-opacity="0.26"/>
      <stop offset="0.26" stop-color="#2e3945" stop-opacity="0.18"/>
      <stop offset="1" stop-color="#000000" stop-opacity="0"/>
    </radialGradient>
    <filter id="tableShadow" x="-10%" y="-14%" width="120%" height="132%">
      <feDropShadow dx="0" dy="22" stdDeviation="24" flood-color="#000000" flood-opacity="0.34"/>
      <feDropShadow dx="0" dy="8" stdDeviation="8" flood-color="#000000" flood-opacity="0.24"/>
    </filter>
    <filter id="feltInset" x="0" y="0" width="1200" height="600">
      <feDropShadow dx="0" dy="0" stdDeviation="16" flood-color="#000000" flood-opacity="0.22"/>
    </filter>
  </defs>

  <g filter="url(#tableShadow)">
    <rect x="14" y="16" width="1172" height="568" rx="56" fill="#2a0f09"/>
    <rect x="24" y="24" width="1152" height="552" rx="50" fill="url(#woodOuter)"/>
    <rect x="24" y="24" width="1152" height="552" rx="50" fill="url(#woodInner)"/>

    <path d="M84 86H1116" stroke="#2a130f" stroke-opacity="0.76" stroke-width="12" stroke-linecap="round"/>
    <path d="M84 514H1116" stroke="#2a130f" stroke-opacity="0.76" stroke-width="12" stroke-linecap="round"/>
    <path d="M95 69H1105" stroke="#ffd7ba" stroke-opacity="0.32" stroke-width="4" stroke-linecap="round"/>
    <path d="M95 531H1105" stroke="#3d160f" stroke-opacity="0.72" stroke-width="5" stroke-linecap="round"/>

    <g filter="url(#feltInset)">
      <rect x="69" y="50" width="1062" height="500" rx="28" fill="url(#feltMain)"/>
      <rect x="69" y="50" width="1062" height="500" rx="28" fill="url(#feltEdge)"/>
    </g>

    <path d="M106 60H532L502 88H136Z" fill="url(#cushion)" opacity="0.96"/>
    <path d="M668 60H1094L1064 88H698Z" fill="url(#cushion)" opacity="0.96"/>
    <path d="M136 512H502L532 540H106Z" fill="url(#cushion)" opacity="0.88"/>
    <path d="M698 512H1064L1094 540H668Z" fill="url(#cushion)" opacity="0.88"/>
    <path d="M79 112V488L99 460V140Z" fill="url(#cushion)" opacity="0.82"/>
    <path d="M1121 112V488L1101 460V140Z" fill="url(#cushion)" opacity="0.82"/>

    <path d="M108 60H530" stroke="#ffffff" stroke-opacity="0.22" stroke-width="2"/>
    <path d="M670 60H1092" stroke="#ffffff" stroke-opacity="0.22" stroke-width="2"/>
    <path d="M136 513H500" stroke="#ffffff" stroke-opacity="0.08" stroke-width="2"/>
    <path d="M700 513H1064" stroke="#ffffff" stroke-opacity="0.08" stroke-width="2"/>

    <g fill="#f6fbff" opacity="0.74">
      <circle cx="208" cy="63" r="2.9"/><circle cx="336" cy="63" r="2.9"/><circle cx="464" cy="63" r="2.9"/>
      <circle cx="736" cy="63" r="2.9"/><circle cx="864" cy="63" r="2.9"/><circle cx="992" cy="63" r="2.9"/>
      <circle cx="208" cy="537" r="2.9"/><circle cx="336" cy="537" r="2.9"/><circle cx="464" cy="537" r="2.9"/>
      <circle cx="736" cy="537" r="2.9"/><circle cx="864" cy="537" r="2.9"/><circle cx="992" cy="537" r="2.9"/>
    </g>

    <path d="M328 78V522" stroke="#e4f9ff" stroke-opacity="0.14" stroke-width="2"/>
    <circle cx="328" cy="300" r="32" stroke="#eefcff" stroke-opacity="0.12" stroke-width="2"/>

    <g>
      <g>
        <circle cx="54" cy="42" r="32" fill="#381711"/>
        <circle cx="54" cy="42" r="27" fill="url(#pocketFill)"/>
        <circle cx="54" cy="42" r="27" fill="url(#pocketRim)"/>
      </g>
      <g>
        <circle cx="600" cy="28" r="30" fill="#381711"/>
        <circle cx="600" cy="28" r="25" fill="url(#pocketFill)"/>
        <circle cx="600" cy="28" r="25" fill="url(#pocketRim)"/>
      </g>
      <g>
        <circle cx="1146" cy="42" r="32" fill="#381711"/>
        <circle cx="1146" cy="42" r="27" fill="url(#pocketFill)"/>
        <circle cx="1146" cy="42" r="27" fill="url(#pocketRim)"/>
      </g>
      <g>
        <circle cx="54" cy="558" r="32" fill="#381711"/>
        <circle cx="54" cy="558" r="27" fill="url(#pocketFill)"/>
        <circle cx="54" cy="558" r="27" fill="url(#pocketRim)"/>
      </g>
      <g>
        <circle cx="600" cy="572" r="30" fill="#381711"/>
        <circle cx="600" cy="572" r="25" fill="url(#pocketFill)"/>
        <circle cx="600" cy="572" r="25" fill="url(#pocketRim)"/>
      </g>
      <g>
        <circle cx="1146" cy="558" r="32" fill="#381711"/>
        <circle cx="1146" cy="558" r="27" fill="url(#pocketFill)"/>
        <circle cx="1146" cy="558" r="27" fill="url(#pocketRim)"/>
      </g>
    </g>
  </g>
</svg>
